<svg id="Warstwa_1" data-name="Warstwa 1" xmlns="http://www.w3.org/2000/svg" viewBox="0 0 566.93 283.46"><defs><style>.cls-1{fill:#005eb2}.cls-2{fill:#ff8000}.cls-6{fill:none;stroke:#1d5ea9;stroke-linecap:round;stroke-linejoin:round;stroke-width:1.45px}</style></defs><path class="cls-1" d="m283.85 145.4 1.52-2.07a5.59 5.59 0 0 0 4 1.58c1.49 0 2.64-.53 2.64-1.47s-1.31-1.39-2.88-1.75c-2.15-.5-4.84-1.18-4.84-4.11 0-2.75 2.43-4.11 5.31-4.11a7.89 7.89 0 0 1 5.08 1.78l-1.55 2.07a5.24 5.24 0 0 0-3.48-1.31c-1.3 0-2.38.44-2.38 1.36s1.28 1.36 2.91 1.73c2.14.47 4.81 1.15 4.81 4.05s-2.46 4.29-5.57 4.29a8.19 8.19 0 0 1-5.55-2M296.65 140.46a6.91 6.91 0 0 1 7.14-7 7 7 0 0 1 6.12 3.32l-2.53 1.55a4.16 4.16 0 1 0 0 4.24l2.53 1.54a7 7 0 0 1-6.12 3.32 6.91 6.91 0 0 1-7.14-7M319.86 133.57v3h-.5a3.81 3.81 0 0 0-4.16 4.06v6.49h-2.93v-13.34h2.93v2a5 5 0 0 1 4.16-2.18ZM332.08 140.46a4.12 4.12 0 1 0-4.11 4.16 4 4 0 0 0 4.11-4.16m2.93-6.68v13.35h-2.93v-1.91a5.81 5.81 0 0 1-4.68 2.22c-3.77 0-6.57-3-6.57-7s2.8-7 6.57-7a5.84 5.84 0 0 1 4.68 2.22v-1.91ZM359.53 138.47v8.66h-2.93v-7.8a2.81 2.81 0 0 0-3-3 3 3 0 0 0-3.16 3.08v7.75h-2.93v-7.8a2.81 2.81 0 0 0-3-3 3 3 0 0 0-3.17 3.08v7.75h-2.93v-13.41h2.93v1.57a5.11 5.11 0 0 1 4.14-1.88 4.68 4.68 0 0 1 4.29 2.36 5.45 5.45 0 0 1 4.68-2.36 4.7 4.7 0 0 1 5 5M371.68 139.23h7.77a4 4 0 0 0-7.77 0m10.83 2.4H371.7a4.2 4.2 0 0 0 4.3 3.17 5.14 5.14 0 0 0 4-1.83l2 1.7a7.7 7.7 0 0 1-6.07 2.77 7 7 0 0 1-7.38-7 7 7 0 0 1 14 .08 8.77 8.77 0 0 1-.08 1.15M362.96 133.78h2.93v22.53h-2.93zM385.81 147.13h2.93v-10.68h2.31v-2.67h-2.31v-4.91h-2.93v4.91h-2.25v2.67h2.25v10.68zM362.96 128.86h2.93v2.93h-2.93z"/><path class="cls-2" d="M327.39 175.92a9.6 9.6 0 0 1-4.61 1.13 11.17 11.17 0 0 1-8.21-3 11.2 11.2 0 0 1 0-15.8 11.07 11.07 0 0 1 7.8-3 12.43 12.43 0 0 1 5 1.16v5.58a6.6 6.6 0 0 0-4.89-2.23 5.86 5.86 0 0 0-4.26 1.63 6.72 6.72 0 0 0-2 4.83 6.13 6.13 0 0 0 6.33 6.37 6.6 6.6 0 0 0 4.8-2.17ZM335.36 153.72v22.86h-4.52v-22.86ZM352.64 174.8a9.43 9.43 0 0 1-12.23 0 7.5 7.5 0 0 1 0-10.41 9.4 9.4 0 0 1 12.23 0 7.5 7.5 0 0 1 0 10.41ZM344 167a3.87 3.87 0 0 0 0 5.26 3.47 3.47 0 0 0 2.57 1 3.42 3.42 0 0 0 2.51-1 3.85 3.85 0 0 0 0-5.26 3.7 3.7 0 0 0-5.08 0ZM362.08 162.6v7.71a3 3 0 0 0 .78 2.26 2.67 2.67 0 0 0 1.88.66 2.8 2.8 0 0 0 1.92-.66 3.09 3.09 0 0 0 .75-2.26v-7.71h4.51v8.15a5.62 5.62 0 0 1-1.56 4.49c-1.6 1.56-4 1.81-5.62 1.81s-4-.25-5.64-1.81a5.36 5.36 0 0 1-1.54-4.21v-8.43ZM390.68 176.58h-4.52v-1.69a5 5 0 0 1-4.42 2.16 6.27 6.27 0 0 1-4.8-1.91 7.84 7.84 0 0 1-2.19-5.61 7.46 7.46 0 0 1 2.19-5.52 7.06 7.06 0 0 1 4.86-1.88 5.21 5.21 0 0 1 4.36 2v-10.41h4.52ZM380.49 167a3.57 3.57 0 0 0-1.1 2.66 3.52 3.52 0 0 0 1.1 2.57 3.45 3.45 0 0 0 2.35 1 3.87 3.87 0 0 0 2.57-1 3.41 3.41 0 0 0 1-2.51 3.63 3.63 0 0 0-1-2.57 3.32 3.32 0 0 0-2.54-1 3.27 3.27 0 0 0-2.38.85ZM409.53 155.67a7.86 7.86 0 0 1 5.48 1.72 6.43 6.43 0 0 1 2 5.08 6.72 6.72 0 0 1-1.79 4.93 7.13 7.13 0 0 1-5.33 1.85H407v7.33h-4.83v-20.91Zm-2.53 9.62h1.72a3.69 3.69 0 0 0 2.6-.78 2.91 2.91 0 0 0 .79-2.07 2.77 2.77 0 0 0-.79-2 3.75 3.75 0 0 0-2.69-.78H407ZM424.2 153.72v22.86h-4.51v-22.86ZM438.56 162.6h4.52v14h-4.52v-1.69a4.64 4.64 0 0 1-4.13 2.16 6.62 6.62 0 0 1-5.24-2.13 7.38 7.38 0 0 1-2-5.23 8 8 0 0 1 2.16-5.65 6.77 6.77 0 0 1 4.86-1.91 5.22 5.22 0 0 1 4.39 2Zm-5.73 4.4a3.5 3.5 0 0 0-1 2.54 3.61 3.61 0 0 0 .94 2.51 3.71 3.71 0 0 0 2.67 1.1 3.34 3.34 0 0 0 2.35-1 3.69 3.69 0 0 0 .06-5.2 3.76 3.76 0 0 0-2.51-1 3.51 3.51 0 0 0-2.51 1.05ZM451.23 166.24v10.34h-4.51v-10.34h-1.57v-3.64h1.57v-4.52h4.51v4.52H454v3.64ZM461.83 166.24v10.34h-4.51v-10.34h-1.63v-3.64h1.63v-2.76a6.62 6.62 0 0 1 1.57-4.86 5.15 5.15 0 0 1 3.92-1.6 7.18 7.18 0 0 1 2.57.47v4a3.5 3.5 0 0 0-1.73-.53 1.6 1.6 0 0 0-1.31.56 4.18 4.18 0 0 0-.51 2.42v2.35h3.58v3.64ZM480.81 174.8a9.43 9.43 0 0 1-12.23 0 7.5 7.5 0 0 1 0-10.41 9.4 9.4 0 0 1 12.23 0 7.5 7.5 0 0 1 0 10.41Zm-8.66-7.8a3.87 3.87 0 0 0 0 5.26 3.47 3.47 0 0 0 2.57 1 3.42 3.42 0 0 0 2.51-1 3.85 3.85 0 0 0 0-5.26 3.7 3.7 0 0 0-5.08 0ZM485.73 162.6h4.52v2.19a5 5 0 0 1 1.75-1.94 4.36 4.36 0 0 1 2.42-.6 4.71 4.71 0 0 1 1.47.22l-.25 4.24a4.2 4.2 0 0 0-2-.51 3 3 0 0 0-2.26.94 5.35 5.35 0 0 0-1.09 3.77v5.67h-4.52ZM497.77 162.6h4.52v1.63a4.41 4.41 0 0 1 3.92-2 5.26 5.26 0 0 1 2.63.63 4.21 4.21 0 0 1 1.7 1.94 5.24 5.24 0 0 1 1.78-1.78 5.3 5.3 0 0 1 3-.79 4.85 4.85 0 0 1 5.36 5.49v8.84h-4.51v-7.06a4.59 4.59 0 0 0-.6-2.73 2.06 2.06 0 0 0-1.63-.75 2.15 2.15 0 0 0-1.75.84 4.48 4.48 0 0 0-.69 2.76v7H507v-7.27a3.77 3.77 0 0 0-.72-2.73 2 2 0 0 0-1.51-.56 2.18 2.18 0 0 0-1.56.56 4.23 4.23 0 0 0-.88 2.85v7.15h-4.52Z"/><path d="M250.46 110.15c-9.52-8.43-17.68-11.7-45.61-12.34s-59.69-.93-62.8.19c-2.62 1-51.46 73.87-51.72 77.72s9 21.28 23.77 28.17 40.38 9.61 44.71 5.6 2.7-25.8.08-27.89-21.71 2.42-31.33-7.52-8.51-26.08-2.11-36.08c7.72-12.07 23.26-11.67 31.92-11.67s14.56.44 15.7 1.53c1.92 1.81-1.28 81.67 1 83.5s33.65 1.38 35.09.32.16-28.31 1.12-29.91 22.76 3 40.38-10.89 14.1-48.07-.2-60.73ZM228.67 142c-1 14.26-20.51 12-21.47 11.37s-1.23-25.53 0-26.12c4.33-2.04 22.59-.58 21.47 14.75Z" style="fill:#1770c9"/><path d="M82.36 175.65c.13 2.27-23 29.89-23.61 29.22s15.88-26.43 14.77-27.07-12.31 14.14-14 13.49 4.76-18.84 3.86-19.28-15.31 25.33-16.93 24.91 8.85-26.62 14.78-32.82 21 9.29 21.15 11.55" style="fill:#ef7e16"/><path d="M142 70.89s-64 95.78-65.1 95.56-12-9.25-13-10.06 7.27-9 5.38-11.18S58.87 131 59.11 129.58s31.45-11.49 33.24-13S142 70.89 142 70.89" style="fill:#5586be"/><path class="cls-6" d="M142 70.89c-1.1-1.15-46 46.11-48.92 47.65S63.37 129.36 60.71 132s9.41 15.68 9 17.29-4.5 5.31-4.17 6.5 11 9.42 13 8.89S143.14 72 142 70.89ZM62.53 165.13c-2.82.82-16.9 29.07-16.08 29.81s19.29-24.12 20-23.61-6.93 17.32-6.19 18.21 14.63-12.42 15.17-11.72-17.08 27.73-15.76 27.74 22.75-24.8 22.66-27.21-16.97-14.04-19.8-13.22ZM139.57 94.22c-1 .43-50 71.66-50.2 73.05s3.63 10.33 10.89 19.95c3.36 4.44 11.95 13.3 24 17.07 14 4.39 31.57 3.34 32.05 3.05.82-.51 0-29.61-.24-30.09s-8.11-.09-14-.44c-3.6-.22-11.49-1.88-17.27-10.55s-6.53-17.83-2.64-26.37 11.94-15.11 20.17-15.53 27.26-.06 27.4.1-.13 82.62.15 82.88 33.75.71 34.44 0-.53-30.36 0-30.75 12 .16 19.2-.69 24.84-4.93 33.81-19.68 5.83-33 .91-41.36-14.39-14.6-21.15-17c-3.27-1.15-10.76-3.78-33.29-4.06-24.56-.29-63.32.02-64.23.42Z"/><path class="cls-6" d="M204.68 124.57c-.47.41-.37 24.11 0 24.56s6.12.58 9.3.28a12.11 12.11 0 0 0 9.48-5.23 13.29 13.29 0 0 0 1.85-10.35 11.32 11.32 0 0 0-7.63-8.53c-4.47-1.47-12.34-1.3-13-.73Z"/></svg>