<svg xmlns="http://www.w3.org/2000/svg" width="100%" height="100%" viewBox="0 0 340.599 142.163" preserveAspectRatio="xMinYMin meet">
  <g id="logo-framework" transform="translate(-414.522 -1234.628)">
    <g id="Group_1989" data-name="Group 1989">
      <g id="Group_1987" data-name="Group 1987">
        <g id="Group_1986" data-name="Group 1986">
          <path id="Path_3117" data-name="Path 3117" d="M565.031,1309.595l1.517-2.067a5.592,5.592,0,0,0,3.977,1.57c1.492,0,2.643-.523,2.643-1.465,0-1.048-1.308-1.387-2.878-1.754-2.146-.5-4.841-1.177-4.841-4.108,0-2.748,2.434-4.108,5.312-4.108a7.889,7.889,0,0,1,5.077,1.779l-1.544,2.067a5.286,5.286,0,0,0-3.48-1.308c-1.309,0-2.382.445-2.382,1.361,0,1.046,1.282,1.361,2.9,1.727,2.146.471,4.814,1.151,4.814,4.055,0,2.774-2.459,4.292-5.573,4.292a8.226,8.226,0,0,1-5.547-2.041" fill="#005eb2"/>
          <path id="Path_3118" data-name="Path 3118" d="M577.827,1304.65a6.909,6.909,0,0,1,7.144-6.987,7.009,7.009,0,0,1,6.123,3.323l-2.538,1.544a4.161,4.161,0,1,0,0,4.238l2.538,1.545a7.006,7.006,0,0,1-6.123,3.323,6.909,6.909,0,0,1-7.144-6.986" fill="#005eb2"/>
          <path id="Path_3119" data-name="Path 3119" d="M601.039,1297.768v3.009h-.5a3.809,3.809,0,0,0-4.161,4.056v6.489H593.45v-13.345h2.932v1.962a5.007,5.007,0,0,1,4.161-2.171Z" fill="#005eb2"/>
          <path id="Path_3120" data-name="Path 3120" d="M613.26,1304.649a4.121,4.121,0,1,0-4.108,4.162,4.046,4.046,0,0,0,4.108-4.162m2.931-6.672v13.345H613.26v-1.91a5.821,5.821,0,0,1-4.684,2.224c-3.768,0-6.567-3.01-6.567-6.987s2.8-6.986,6.567-6.986a5.821,5.821,0,0,1,4.684,2.224v-1.91Z" fill="#005eb2"/>
          <path id="Path_3121" data-name="Path 3121" d="M640.711,1302.661v8.661H637.78v-7.8a2.81,2.81,0,0,0-2.957-3.035,2.96,2.96,0,0,0-3.166,3.088v7.745h-2.93v-7.8a2.81,2.81,0,0,0-2.957-3.035,2.96,2.96,0,0,0-3.166,3.088v7.745h-2.931v-13.345H622.6v1.57a5.1,5.1,0,0,1,4.134-1.884,4.684,4.684,0,0,1,4.292,2.355,5.446,5.446,0,0,1,4.684-2.355,4.7,4.7,0,0,1,5,5" fill="#005eb2"/>
          <path id="Path_3122" data-name="Path 3122" d="M652.856,1303.42h7.771a3.981,3.981,0,0,0-7.771,0m10.833,2.407H652.882a4.2,4.2,0,0,0,4.292,3.167,5.115,5.115,0,0,0,4-1.833l1.989,1.7a7.7,7.7,0,0,1-6.071,2.774,7.043,7.043,0,0,1-7.379-7.039,7.026,7.026,0,0,1,14.052.079,8.4,8.4,0,0,1-.079,1.151" fill="#005eb2"/>
          <rect id="Rectangle_132" data-name="Rectangle 132" width="2.93" height="22.526" transform="translate(644.142 1297.977)" fill="#005eb2"/>
          <path id="Path_3123" data-name="Path 3123" d="M666.989,1311.322h2.931v-10.676h2.314v-2.669h-2.314v-4.919h-2.931v4.919h-2.25v2.669h2.25Z" fill="#005eb2"/>
          <rect id="Rectangle_133" data-name="Rectangle 133" width="2.93" height="2.931" transform="translate(644.142 1293.057)" fill="#005eb2"/>
        </g>
      </g>
      <g id="Group_1988" data-name="Group 1988">
        <path id="Path_3124" data-name="Path 3124" d="M605.06,1323.937h-6.773v4.045h6.271v4.077h-6.271v8.717h-4.829v-20.915h11.6Z" fill="#ff8000"/>
        <path id="Path_3125" data-name="Path 3125" d="M608.072,1326.791h4.515v2.195a5.009,5.009,0,0,1,1.757-1.944,4.319,4.319,0,0,1,2.414-.6,4.532,4.532,0,0,1,1.474.219l-.251,4.233a4.268,4.268,0,0,0-2.038-.5,2.951,2.951,0,0,0-2.258.94,5.317,5.317,0,0,0-1.1,3.763v5.676h-4.515Z" fill="#ff8000"/>
        <path id="Path_3126" data-name="Path 3126" d="M630.368,1326.791h4.516v13.985h-4.516v-1.693a4.66,4.66,0,0,1-4.139,2.163,6.627,6.627,0,0,1-5.237-2.132,7.4,7.4,0,0,1-2.038-5.236,7.964,7.964,0,0,1,2.164-5.645,6.742,6.742,0,0,1,4.861-1.912,5.244,5.244,0,0,1,4.389,2.038Zm-5.738,4.421a3.492,3.492,0,0,0-1.035,2.54,3.607,3.607,0,0,0,.941,2.509,3.71,3.71,0,0,0,2.665,1.1,3.343,3.343,0,0,0,2.352-.972,3.712,3.712,0,0,0,.063-5.2,3.779,3.779,0,0,0-2.509-.973A3.559,3.559,0,0,0,624.63,1331.212Z" fill="#ff8000"/>
        <path id="Path_3127" data-name="Path 3127" d="M638.4,1326.791h4.515v1.63a4.412,4.412,0,0,1,3.92-1.975,5.209,5.209,0,0,1,2.634.627,4.133,4.133,0,0,1,1.693,1.944,5.374,5.374,0,0,1,4.766-2.571,4.846,4.846,0,0,1,5.363,5.487v8.843h-4.516v-7.087a4.616,4.616,0,0,0-.6-2.728,2.073,2.073,0,0,0-1.63-.753,2.166,2.166,0,0,0-1.756.848,4.488,4.488,0,0,0-.69,2.759v6.961h-4.515V1333.5a3.766,3.766,0,0,0-.722-2.728,2.03,2.03,0,0,0-1.505-.565,2.2,2.2,0,0,0-1.568.565,4.244,4.244,0,0,0-.878,2.853v7.15H638.4Z" fill="#ff8000"/>
        <path id="Path_3128" data-name="Path 3128" d="M679.165,1334.567H668.723a3.822,3.822,0,0,0,.847,2.384,3.032,3.032,0,0,0,2.321.877,3.709,3.709,0,0,0,1.818-.407,2.744,2.744,0,0,0,.972-1.16l4.265.438a6.256,6.256,0,0,1-2.7,3.513,8.305,8.305,0,0,1-4.421,1.034,7.244,7.244,0,0,1-5.582-2.006,7.513,7.513,0,0,1-2.1-5.394,7.964,7.964,0,0,1,2.132-5.519,8.279,8.279,0,0,1,10.913.094,7.975,7.975,0,0,1,1.975,5.676Zm-4.17-2.7a3.548,3.548,0,0,0-.91-1.631,3.313,3.313,0,0,0-4.421.126,3.131,3.131,0,0,0-.784,1.505Z" fill="#ff8000"/>
        <path id="Path_3129" data-name="Path 3129" d="M690.08,1340.776h-2.823l-6.96-13.985h4.954l3.606,7.431,3.543-7.619h2.383l3.544,7.619,3.606-7.431h4.955l-6.962,13.985H697.1l-3.512-7.964Z" fill="#ff8000"/>
        <path id="Path_3130" data-name="Path 3130" d="M722.036,1338.989a9.411,9.411,0,0,1-12.229,0,7.5,7.5,0,0,1,0-10.411,9.411,9.411,0,0,1,12.229,0,7.5,7.5,0,0,1,0,10.411Zm-8.655-7.84a3.869,3.869,0,0,0,0,5.268,3.477,3.477,0,0,0,2.572,1,3.425,3.425,0,0,0,2.508-1,3.869,3.869,0,0,0,0-5.268,3.718,3.718,0,0,0-5.08,0Z" fill="#ff8000"/>
        <path id="Path_3131" data-name="Path 3131" d="M726.961,1326.791h4.516v2.195a5.015,5.015,0,0,1,1.756-1.944,4.319,4.319,0,0,1,2.414-.6,4.524,4.524,0,0,1,1.474.219l-.251,4.233a4.265,4.265,0,0,0-2.038-.5,2.952,2.952,0,0,0-2.258.94,5.316,5.316,0,0,0-1.1,3.763v5.676h-4.516Z" fill="#ff8000"/>
        <path id="Path_3132" data-name="Path 3132" d="M743.645,1317.916v14.017l5.08-5.142h5.926L748,1333.125l7.118,7.651h-6.083l-5.393-6.021v6.021h-4.516v-22.86Z" fill="#ff8000"/>
      </g>
    </g>
    <g id="Group_1990" data-name="Group 1990">
      <path id="Path_3133" data-name="Path 3133" d="M509.618,1260.615c-2.3.883-47.019,65.544-47.665,69.047s-1.616,45.029,1.292,46.159,34.255,1.617,37.163-.484-1.293-34.9.485-37.164,38.293,1.615,42.495-.324,2.713-27.889,1.437-29.536-38.779-.678-41.113-.678-4.111-12.928-1.284-13.736,41.98.485,43.732-1.131,2.315-30.862,0-32.153S511.719,1259.807,509.618,1260.615Z" fill="#1770c9"/>
      <path id="Path_3134" data-name="Path 3134" d="M451.184,1340.725c.128,2.284-23.144,30.135-23.806,29.465s16.013-26.651,14.9-27.3-12.42,14.254-14.139,13.595,4.8-18.994,3.894-19.437-15.448,25.543-17.075,25.115,8.923-26.842,14.9-33.094,21.2,9.365,21.329,11.652" fill="#ef7e16"/>
      <path id="Path_3135" data-name="Path 3135" d="M511.358,1235.079s-64.507,96.586-65.652,96.37-12.137-9.333-13.119-10.147,7.333-9.1,5.423-11.272-10.51-14.349-10.271-15.769,31.716-11.581,33.521-13.085,50.1-46.1,50.1-46.1" fill="#5586be"/>
      <path id="Path_3136" data-name="Path 3136" d="M511.358,1235.079c-1.116-1.157-46.358,46.5-49.334,48.056s-29.987,10.911-32.673,13.55,9.487,15.808,9.06,17.435-4.544,5.355-4.212,6.553,11.115,9.5,13.162,8.964S512.472,1236.237,511.358,1235.079Z" fill="none" stroke="#1d5ea9" stroke-linecap="round" stroke-linejoin="round" stroke-width="1"/>
      <path id="Path_3137" data-name="Path 3137" d="M431.191,1330.112c-2.852.824-17.041,29.312-16.216,30.06s19.445-24.319,20.173-23.805-6.991,17.46-6.24,18.359,14.756-12.524,15.3-11.812-17.229,27.961-15.9,27.973,22.947-25.009,22.847-27.444S434.042,1329.287,431.191,1330.112Z" fill="none" stroke="#1d5ea9" stroke-linecap="round" stroke-linejoin="round" stroke-width="1"/>
      <path id="Path_3138" data-name="Path 3138" d="M507.3,1258.452c-2.153,1.159-47.338,67.97-48,69.846s-.308,43.88,0,44.378,37.519.653,38.182,0-.6-36.576,0-37.368,43.62.852,44.56,0,.756-28.973,0-29.7-43.219.118-43.89-.363-.734-13.025-.371-13.813,44.895.338,45.988-.346.24-31.87,0-32.637S508.58,1257.764,507.3,1258.452Z" fill="none" stroke="#1d5ea9" stroke-linecap="round" stroke-linejoin="round" stroke-width="1"/>
    </g>
  </g>
</svg>
