<svg version="1.1" id="Warstwa_2" x="0" y="0" xml:space="preserve" width="249.77" height="119.91" xmlns:xlink="http://www.w3.org/1999/xlink" xmlns="http://www.w3.org/2000/svg"><defs id="defs342"><clipPath id="SVGID_2_-0"><use xlink:href="#SVGID_1_" style="overflow:visible" id="use310-6" x="0" y="0" width="100%" height="100%"/></clipPath><clipPath id="SVGID_2_-4"><use xlink:href="#SVGID_1_" style="overflow:visible" id="use310-9" x="0" y="0" width="100%" height="100%"/></clipPath></defs><style type="text/css" id="style305">.st0{clip-path:url(#SVGID_2_)}.st0,.st1{fill:#165faa}</style><g id="g441" transform="translate(-16.7 -80.63)"><g id="g325"><defs id="defs308"><path id="SVGID_1_" d="M35.59 99.52h212.29v82.43H35.59z"/></defs><clipPath id="SVGID_2_"><use xlink:href="#SVGID_1_" style="overflow:visible" id="use310" x="0" y="0" width="100%" height="100%"/></clipPath><path class="st0" d="m98.54 158.69 2.11-2.88c1.42 1.35 3.24 2.19 5.54 2.19 2.08 0 3.68-.73 3.68-2.04 0-1.46-1.82-1.93-4.01-2.44-2.99-.69-6.74-1.64-6.74-5.72 0-3.83 3.39-5.72 7.4-5.72 3.06 0 5.43 1.13 7.07 2.48l-2.15 2.88c-1.28-1.09-2.92-1.82-4.85-1.82-1.82 0-3.32.62-3.32 1.89 0 1.46 1.79 1.9 4.05 2.41 2.99.66 6.71 1.6 6.71 5.65 0 3.86-3.43 5.98-7.76 5.98-3.39-.02-5.94-1.29-7.73-2.86" clip-path="url(#SVGID_2_)" id="path313"/><path class="st0" d="M116.37 151.8c0-5.54 4.26-9.73 9.95-9.73 3.72 0 6.85 1.82 8.53 4.63l-3.54 2.15c-.98-1.71-2.81-2.84-4.99-2.84-3.28 0-5.76 2.52-5.76 5.8s2.48 5.8 5.76 5.8c2.19 0 4.01-1.13 4.99-2.84l3.54 2.15c-1.68 2.81-4.81 4.63-8.53 4.63-5.69-.02-9.95-4.21-9.95-9.75" clip-path="url(#SVGID_2_)" id="path315"/><path class="st0" d="M148.7 142.21v4.19h-.69c-3.65 0-5.8 2.22-5.8 5.65v9.04h-4.08V142.5h4.08v2.73c1.38-1.9 3.35-3.03 5.8-3.03h.69z" clip-path="url(#SVGID_2_)" id="path317"/><path class="st0" d="M165.73 151.8c0-3.28-2.44-5.8-5.72-5.8-3.32 0-5.76 2.52-5.76 5.8s2.44 5.8 5.76 5.8c3.27 0 5.72-2.52 5.72-5.8m4.08-9.29v18.59h-4.08v-2.66c-1.53 1.93-3.79 3.1-6.53 3.1-5.25 0-9.15-4.19-9.15-9.73s3.9-9.73 9.15-9.73c2.73 0 4.99 1.17 6.53 3.1v-2.66h4.08z" clip-path="url(#SVGID_2_)" id="path319"/><path class="st0" d="M203.97 149.03v12.07h-4.08v-10.86c0-2.55-1.6-4.23-4.12-4.23-2.62 0-4.41 1.71-4.41 4.3v10.79h-4.08v-10.86c0-2.55-1.6-4.23-4.12-4.23-2.62 0-4.41 1.71-4.41 4.3v10.79h-4.08v-18.59h4.08v2.19c1.39-1.71 3.35-2.62 5.76-2.62 2.73 0 4.85 1.24 5.98 3.28 1.46-2.11 3.72-3.28 6.53-3.28 4.21-.01 6.95 2.76 6.95 6.95" clip-path="url(#SVGID_2_)" id="path321"/><path class="st0" d="M220.88 150.09h10.83c-.62-2.62-2.77-4.34-5.43-4.34-2.66 0-4.74 1.75-5.4 4.34m15.09 3.35h-15.05c.66 2.66 2.95 4.41 5.98 4.41 2.44 0 4.52-1.17 5.58-2.55l2.77 2.37c-1.9 2.37-4.96 3.86-8.46 3.86-5.91 0-10.28-4.23-10.28-9.81 0-5.5 4.23-9.66 9.81-9.66s9.77 4.16 9.77 9.77c-.01.52-.04 1.1-.12 1.61" clip-path="url(#SVGID_2_)" id="path323"/></g><path class="st1" id="rect327" d="M208.74 142.51h4.08v31.38h-4.08z"/><path class="st1" id="polygon329" d="M244.65 146.22h3.23v-3.71h-3.23v-6.86h-4.08v6.86h-3.13v3.71h3.13v14.88h4.08z"/><path class="st1" id="rect331" d="M208.74 135.65h4.08v4.08h-4.08z"/><path class="st1" id="polygon333" d="m62.49 130.89-20.72 8.47 5.83 11.25-2.62 3.71 8.29 5.74 41.58-60.54z"/><path id="polygon335" style="fill:#2a6eb5" d="m61.56 165.71 2.53-3.77 12.59 1.41.48-22.38 17.69-41.45-41.58 60.54z"/><path id="polygon337" style="fill:#f07e19" d="m55.32 162.73-5.86-4-.24-.17-2.64-1.8-10.99 19.21 13.35-16.59-4.38 12.85 10.39-8.85-10.62 18.57 13.88-17.25-2.67-1.82z"/></g></svg>