<svg xmlns="http://www.w3.org/2000/svg" width="100%" height="100%" viewBox="0 0 475.347 142.162" preserveAspectRatio="xMinYMin meet">
  <g id="logo-sth" transform="translate(-1053.625 -1234.629)">
    <g id="Group_1995" data-name="Group 1995">
      <g id="Group_1993" data-name="Group 1993">
        <g id="Group_1992" data-name="Group 1992">
          <path id="Path_3139" data-name="Path 3139" d="M1295.48,1313.6l1.518-2.067a5.59,5.59,0,0,0,3.977,1.57c1.492,0,2.643-.523,2.643-1.465,0-1.047-1.308-1.387-2.878-1.754-2.146-.5-4.841-1.176-4.841-4.107,0-2.748,2.434-4.108,5.312-4.108a7.882,7.882,0,0,1,5.076,1.779l-1.544,2.067a5.28,5.28,0,0,0-3.48-1.308c-1.308,0-2.381.445-2.381,1.36,0,1.047,1.282,1.361,2.9,1.727,2.146.471,4.815,1.151,4.815,4.056,0,2.773-2.46,4.291-5.573,4.291a8.229,8.229,0,0,1-5.548-2.041" fill="#005eb2"/>
          <path id="Path_3140" data-name="Path 3140" d="M1308.277,1308.652a6.909,6.909,0,0,1,7.143-6.987,7.009,7.009,0,0,1,6.124,3.324l-2.539,1.543a4.162,4.162,0,1,0,0,4.239l2.539,1.544a7.008,7.008,0,0,1-6.124,3.323,6.908,6.908,0,0,1-7.143-6.986" fill="#005eb2"/>
          <path id="Path_3141" data-name="Path 3141" d="M1331.489,1301.77v3.009h-.5a3.809,3.809,0,0,0-4.161,4.056v6.49H1323.9v-13.346h2.931v1.963a5.008,5.008,0,0,1,4.161-2.172Z" fill="#005eb2"/>
          <path id="Path_3142" data-name="Path 3142" d="M1343.71,1308.652a4.122,4.122,0,1,0-4.109,4.161,4.047,4.047,0,0,0,4.109-4.161m2.931-6.673v13.345h-2.931v-1.91a5.824,5.824,0,0,1-4.685,2.224c-3.767,0-6.567-3.009-6.567-6.986s2.8-6.987,6.567-6.987a5.827,5.827,0,0,1,4.685,2.224v-1.91Z" fill="#005eb2"/>
          <path id="Path_3143" data-name="Path 3143" d="M1371.161,1306.663v8.661h-2.932v-7.8a2.809,2.809,0,0,0-2.956-3.036,2.96,2.96,0,0,0-3.166,3.088v7.745h-2.931v-7.8a2.81,2.81,0,0,0-2.957-3.036,2.96,2.96,0,0,0-3.166,3.088v7.745h-2.931v-13.345h2.931v1.571a5.1,5.1,0,0,1,4.135-1.885,4.68,4.68,0,0,1,4.291,2.356,5.448,5.448,0,0,1,4.684-2.356,4.7,4.7,0,0,1,5,5" fill="#005eb2"/>
          <path id="Path_3144" data-name="Path 3144" d="M1383.305,1307.422h7.771a3.981,3.981,0,0,0-7.771,0m10.833,2.408h-10.807a4.2,4.2,0,0,0,4.292,3.166,5.115,5.115,0,0,0,4-1.833l1.989,1.7a7.7,7.7,0,0,1-6.071,2.774,7.043,7.043,0,0,1-7.379-7.039,7.026,7.026,0,0,1,14.052.079,8.387,8.387,0,0,1-.079,1.152" fill="#005eb2"/>
          <rect id="Rectangle_134" data-name="Rectangle 134" width="2.93" height="22.526" transform="translate(1374.591 1301.979)" fill="#005eb2"/>
          <path id="Path_3145" data-name="Path 3145" d="M1397.438,1315.324h2.931v-10.676h2.314v-2.669h-2.314v-4.919h-2.931v4.919h-2.25v2.669h2.25Z" fill="#005eb2"/>
          <rect id="Rectangle_135" data-name="Rectangle 135" width="2.93" height="2.931" transform="translate(1374.591 1297.06)" fill="#005eb2"/>
        </g>
      </g>
      <g id="Group_1994" data-name="Group 1994">
        <path id="Path_3146" data-name="Path 3146" d="M1331.213,1327.94v16.839h-4.829V1327.94h-4.515v-4.077h13.922v4.077Z" fill="#ff8000"/>
        <path id="Path_3147" data-name="Path 3147" d="M1336.515,1330.794h4.515v2.194a5.021,5.021,0,0,1,1.756-1.944,4.329,4.329,0,0,1,2.414-.595,4.523,4.523,0,0,1,1.474.219l-.25,4.233a4.271,4.271,0,0,0-2.038-.5,2.951,2.951,0,0,0-2.259.941,5.314,5.314,0,0,0-1.1,3.763v5.676h-4.515Z" fill="#ff8000"/>
        <path id="Path_3148" data-name="Path 3148" d="M1358.811,1330.794h4.515v13.985h-4.515v-1.693a4.66,4.66,0,0,1-4.139,2.163,6.629,6.629,0,0,1-5.237-2.132,7.4,7.4,0,0,1-2.038-5.237,7.961,7.961,0,0,1,2.163-5.644,6.744,6.744,0,0,1,4.861-1.913,5.246,5.246,0,0,1,4.39,2.038Zm-5.739,4.421a3.494,3.494,0,0,0-1.035,2.539,3.609,3.609,0,0,0,.941,2.509,3.714,3.714,0,0,0,2.666,1.1,3.349,3.349,0,0,0,2.352-.972,3.712,3.712,0,0,0,.062-5.206,3.779,3.779,0,0,0-2.508-.972A3.562,3.562,0,0,0,1353.072,1335.215Z" fill="#ff8000"/>
        <path id="Path_3149" data-name="Path 3149" d="M1366.84,1330.794h4.515v1.661a5.108,5.108,0,0,1,4.328-2.038,4.932,4.932,0,0,1,5.425,5.519v8.843h-4.516V1337.6a3.872,3.872,0,0,0-.753-2.791,2.365,2.365,0,0,0-1.724-.627,2.449,2.449,0,0,0-1.881.753,3.575,3.575,0,0,0-.879,2.665v7.181h-4.515Z" fill="#ff8000"/>
        <path id="Path_3150" data-name="Path 3150" d="M1392.836,1334.368a5.127,5.127,0,0,0-2.477-.784,1.912,1.912,0,0,0-1.285.408.965.965,0,0,0-.283.627.732.732,0,0,0,.44.627,8.079,8.079,0,0,0,1.348.47l1.191.376a5.957,5.957,0,0,1,2.321,1.224,3.334,3.334,0,0,1,1.1,2.665,5.079,5.079,0,0,1-1.442,3.669,6.046,6.046,0,0,1-4.547,1.6,8.306,8.306,0,0,1-5.738-2.007l1.912-3.042a7.758,7.758,0,0,0,1.537,1.035,4.216,4.216,0,0,0,1.881.439,2.528,2.528,0,0,0,1.411-.313,1.194,1.194,0,0,0,.471-.91.923.923,0,0,0-.5-.815,6,6,0,0,0-1.38-.5l-1.128-.345a5.587,5.587,0,0,1-2.258-1.285,3.449,3.449,0,0,1-1-2.54,4.331,4.331,0,0,1,1.349-3.23,6.166,6.166,0,0,1,4.233-1.411,8.82,8.82,0,0,1,4.641,1.192Z" fill="#ff8000"/>
        <path id="Path_3151" data-name="Path 3151" d="M1402.778,1334.431v10.348h-4.515v-10.348h-1.631v-3.637h1.631v-2.76a6.618,6.618,0,0,1,1.568-4.861,5.154,5.154,0,0,1,3.92-1.6,7.093,7.093,0,0,1,2.57.47V1326a3.468,3.468,0,0,0-1.724-.534,1.626,1.626,0,0,0-1.317.565,4.214,4.214,0,0,0-.5,2.415v2.352h3.575v3.637Z" fill="#ff8000"/>
        <path id="Path_3152" data-name="Path 3152" d="M1421.75,1342.991a9.408,9.408,0,0,1-12.229,0,7.5,7.5,0,0,1,0-10.41,9.408,9.408,0,0,1,12.229,0,7.5,7.5,0,0,1,0,10.41Zm-8.654-7.839a3.869,3.869,0,0,0,0,5.268,3.477,3.477,0,0,0,2.571,1,3.425,3.425,0,0,0,2.508-1,3.869,3.869,0,0,0,0-5.268,3.717,3.717,0,0,0-5.079,0Z" fill="#ff8000"/>
        <path id="Path_3153" data-name="Path 3153" d="M1426.676,1330.794h4.515v2.194a5.021,5.021,0,0,1,1.756-1.944,4.327,4.327,0,0,1,2.414-.595,4.523,4.523,0,0,1,1.474.219l-.251,4.233a4.266,4.266,0,0,0-2.038-.5,2.95,2.95,0,0,0-2.258.941,5.314,5.314,0,0,0-1.1,3.763v5.676h-4.515Z" fill="#ff8000"/>
        <path id="Path_3154" data-name="Path 3154" d="M1438.718,1330.794h4.515v1.63a4.414,4.414,0,0,1,3.92-1.975,5.208,5.208,0,0,1,2.634.627,4.134,4.134,0,0,1,1.693,1.943,5.371,5.371,0,0,1,4.766-2.57,4.846,4.846,0,0,1,5.363,5.487v8.843h-4.516v-7.087a4.615,4.615,0,0,0-.6-2.728,2.073,2.073,0,0,0-1.63-.753,2.169,2.169,0,0,0-1.756.847,4.491,4.491,0,0,0-.69,2.759v6.962h-4.515V1337.5a3.769,3.769,0,0,0-.721-2.728,2.028,2.028,0,0,0-1.506-.565,2.2,2.2,0,0,0-1.567.565,4.241,4.241,0,0,0-.879,2.853v7.15h-4.515Z" fill="#ff8000"/>
        <path id="Path_3155" data-name="Path 3155" d="M1477.824,1331.828h8.341v-7.965h4.829v20.916h-4.829v-8.874h-8.341v8.874h-4.829v-20.916h4.829Z" fill="#ff8000"/>
        <path id="Path_3156" data-name="Path 3156" d="M1499.557,1330.794v7.713a2.944,2.944,0,0,0,.784,2.258,2.66,2.66,0,0,0,1.881.659,2.8,2.8,0,0,0,1.913-.659,3.046,3.046,0,0,0,.752-2.258v-7.713h4.516v8.152a5.611,5.611,0,0,1-1.568,4.484c-1.6,1.568-3.951,1.819-5.613,1.819-1.725,0-4.045-.251-5.644-1.819a5.354,5.354,0,0,1-1.537-4.2v-8.434Z" fill="#ff8000"/>
        <path id="Path_3157" data-name="Path 3157" d="M1517.558,1321.919v10.442a5.218,5.218,0,0,1,4.358-2.038,7.047,7.047,0,0,1,4.861,1.881,7.477,7.477,0,0,1,2.2,5.519,7.839,7.839,0,0,1-2.2,5.613,6.281,6.281,0,0,1-4.8,1.913,4.973,4.973,0,0,1-4.421-2.163v1.693h-4.516v-22.86Zm.721,13.327a3.6,3.6,0,0,0-1,2.571,3.4,3.4,0,0,0,1.035,2.509,3.85,3.85,0,0,0,2.57,1.035,3.464,3.464,0,0,0,2.352-.972,3.543,3.543,0,0,0,1.1-2.572,3.6,3.6,0,0,0-1.1-2.665,3.279,3.279,0,0,0-2.414-.941A3.317,3.317,0,0,0,1518.279,1335.246Z" fill="#ff8000"/>
      </g>
    </g>
    <g id="Group_1996" data-name="Group 1996">
      <path id="Path_3158" data-name="Path 3158" d="M1149.759,1262.67c-1.106,1.438-22,30.125-22.123,30.851s8.59,0,9.2.847-.847,80.818.484,81.544,33.513,1.331,34.723-.726-.726-80.576.846-81.786,14.156-1.089,15.607,0-.967,81.06.484,82.391,30.972,1.452,33.15-.363,0-46.821,1.21-47.547,16.817-.6,17.542.484-.6,45.49.726,46.942,32.182,1.694,34-.121,1.21-110.46-.726-112.274-29.036-.484-31.214,0-1.331,35.448-1.936,37.505-16.091,1.694-18.268.968,1.935-37.505-.121-38.715S1151.508,1260.4,1149.759,1262.67Z" fill="#1770c9"/>
      <path id="Path_3159" data-name="Path 3159" d="M1090.229,1340.552c.127,2.28-23.107,30.086-23.768,29.417s15.987-26.607,14.871-27.252-12.4,14.231-14.115,13.573,4.787-18.963,3.886-19.405-15.421,25.5-17.046,25.074,8.908-26.8,14.878-33.04,21.164,9.35,21.294,11.633" fill="#ef7e16"/>
      <path id="Path_3160" data-name="Path 3160" d="M1150.3,1235.079s-64.4,96.428-65.544,96.212-12.118-9.317-13.1-10.13,7.321-9.084,5.414-11.254-10.492-14.326-10.254-15.743,31.664-11.562,33.466-13.064,50.016-46.021,50.016-46.021" fill="#5586be"/>
      <path id="Path_3161" data-name="Path 3161" d="M1150.3,1235.079c-1.114-1.156-46.282,46.425-49.253,47.978s-29.938,10.893-32.62,13.527,9.472,15.783,9.045,17.407-4.537,5.346-4.2,6.542,11.1,9.486,13.139,8.949S1151.416,1236.235,1150.3,1235.079Z" fill="none" stroke="#1d5ea9" stroke-linecap="round" stroke-linejoin="round" stroke-width="1"/>
      <path id="Path_3162" data-name="Path 3162" d="M1070.268,1329.957c-2.847.822-17.013,29.263-16.189,30.01s19.412-24.279,20.139-23.766-6.979,17.431-6.229,18.329,14.732-12.5,15.276-11.792-17.2,27.915-15.871,27.926,22.91-24.968,22.81-27.4S1073.115,1329.133,1070.268,1329.957Z" fill="none" stroke="#1d5ea9" stroke-linecap="round" stroke-linejoin="round" stroke-width="1"/>
      <path id="Path_3163" data-name="Path 3163" d="M1148.007,1258.414c-1.034.417-21.732,31.241-21.52,31.75s7.734.229,8.207.508-.967,81.059,0,81.779,34.1.45,34.675,0-.329-81.281,0-81.779,15.88-.43,16.292,0-.533,81.3,0,81.779,34.33.368,34.671,0-.341-40.477,0-40.891,17.372-.191,17.628,0-.377,40.494,0,40.891,34.289.329,34.674,0,.381-113.533,0-114.037-34.406-.3-34.674,0,.348,39.726,0,40.239-17.243.535-17.628,0,.546-39.856,0-40.239S1148.859,1258.071,1148.007,1258.414Z" fill="none" stroke="#1d5ea9" stroke-linecap="round" stroke-linejoin="round" stroke-width="1"/>
    </g>
  </g>
</svg>
