<svg xmlns="http://www.w3.org/2000/svg" viewBox="0 0 475.347 142.162" preserveAspectRatio="xMinYMin meet"><g data-name="Group 1995"><g data-name="Group 1993"><g data-name="Group 1992" fill="#005eb2"><path data-name="Path 3139" d="m241.855 78.971 1.518-2.067a5.59 5.59 0 0 0 3.977 1.57c1.492 0 2.643-.523 2.643-1.465 0-1.047-1.308-1.387-2.878-1.754-2.146-.5-4.841-1.176-4.841-4.107 0-2.748 2.434-4.108 5.312-4.108a7.882 7.882 0 0 1 5.076 1.779l-1.544 2.067a5.28 5.28 0 0 0-3.48-1.308c-1.308 0-2.381.445-2.381 1.36 0 1.047 1.282 1.361 2.9 1.727 2.146.471 4.815 1.151 4.815 4.056 0 2.773-2.46 4.291-5.573 4.291a8.229 8.229 0 0 1-5.548-2.041"/><path data-name="Path 3140" d="M254.652 74.023a6.909 6.909 0 0 1 7.143-6.987 7.009 7.009 0 0 1 6.124 3.324l-2.539 1.543a4.162 4.162 0 1 0 0 4.239l2.539 1.544a7.008 7.008 0 0 1-6.124 3.323 6.908 6.908 0 0 1-7.143-6.986"/><path data-name="Path 3141" d="M277.864 67.141v3.009h-.5a3.809 3.809 0 0 0-4.161 4.056v6.49h-2.928V67.35h2.931v1.963a5.008 5.008 0 0 1 4.161-2.172Z"/><path data-name="Path 3142" d="M290.085 74.023a4.122 4.122 0 1 0-4.109 4.161 4.047 4.047 0 0 0 4.109-4.161m2.931-6.673v13.345h-2.931v-1.91a5.824 5.824 0 0 1-4.685 2.224c-3.767 0-6.567-3.009-6.567-6.986s2.8-6.987 6.567-6.987a5.827 5.827 0 0 1 4.685 2.224v-1.91Z"/><path data-name="Path 3143" d="M317.536 72.034v8.661h-2.932v-7.8a2.809 2.809 0 0 0-2.956-3.036 2.96 2.96 0 0 0-3.166 3.088v7.745h-2.931v-7.8a2.81 2.81 0 0 0-2.957-3.036 2.96 2.96 0 0 0-3.166 3.088v7.745h-2.931V67.344h2.931v1.571a5.1 5.1 0 0 1 4.135-1.885 4.68 4.68 0 0 1 4.291 2.356 5.448 5.448 0 0 1 4.684-2.356 4.7 4.7 0 0 1 5 5"/><path data-name="Path 3144" d="M329.68 72.793h7.771a3.981 3.981 0 0 0-7.771 0m10.833 2.408h-10.807a4.2 4.2 0 0 0 4.292 3.166 5.115 5.115 0 0 0 4-1.833l1.989 1.7a7.7 7.7 0 0 1-6.071 2.774 7.043 7.043 0 0 1-7.379-7.039 7.026 7.026 0 0 1 14.052.079 8.387 8.387 0 0 1-.079 1.152"/><path data-name="Rectangle 134" d="M320.966 67.35h2.93v22.526h-2.93z"/><path data-name="Path 3145" d="M343.813 80.695h2.931V70.019h2.314V67.35h-2.314v-4.919h-2.931v4.919h-2.25v2.669h2.25Z"/><path data-name="Rectangle 135" d="M320.966 62.431h2.93v2.931h-2.93z"/></g></g><g data-name="Group 1994" fill="#ff8000"><path data-name="Path 3146" d="M277.588 93.311v16.839h-4.829V93.311h-4.515v-4.077h13.922v4.077Z"/><path data-name="Path 3147" d="M282.89 96.165h4.515v2.194a5.021 5.021 0 0 1 1.756-1.944 4.329 4.329 0 0 1 2.414-.595 4.523 4.523 0 0 1 1.474.219l-.25 4.233a4.271 4.271 0 0 0-2.038-.5 2.951 2.951 0 0 0-2.259.941 5.314 5.314 0 0 0-1.1 3.763v5.676h-4.515Z"/><path data-name="Path 3148" d="M305.186 96.165h4.515v13.985h-4.515v-1.693a4.66 4.66 0 0 1-4.139 2.163 6.629 6.629 0 0 1-5.237-2.132 7.4 7.4 0 0 1-2.038-5.237 7.961 7.961 0 0 1 2.163-5.644 6.744 6.744 0 0 1 4.861-1.913 5.246 5.246 0 0 1 4.39 2.038Zm-5.739 4.421a3.494 3.494 0 0 0-1.035 2.539 3.609 3.609 0 0 0 .941 2.509 3.714 3.714 0 0 0 2.666 1.1 3.349 3.349 0 0 0 2.352-.972 3.712 3.712 0 0 0 .062-5.206 3.779 3.779 0 0 0-2.508-.972 3.562 3.562 0 0 0-2.478 1.002Z"/><path data-name="Path 3149" d="M313.215 96.165h4.515v1.661a5.108 5.108 0 0 1 4.328-2.038 4.932 4.932 0 0 1 5.425 5.519v8.843h-4.516v-7.179a3.872 3.872 0 0 0-.753-2.791 2.365 2.365 0 0 0-1.724-.627 2.449 2.449 0 0 0-1.881.753 3.575 3.575 0 0 0-.879 2.665v7.181h-4.515Z"/><path data-name="Path 3150" d="M339.211 99.739a5.127 5.127 0 0 0-2.477-.784 1.912 1.912 0 0 0-1.285.408.965.965 0 0 0-.283.627.732.732 0 0 0 .44.627 8.079 8.079 0 0 0 1.348.47l1.191.376a5.957 5.957 0 0 1 2.321 1.224 3.334 3.334 0 0 1 1.1 2.665 5.079 5.079 0 0 1-1.442 3.669 6.046 6.046 0 0 1-4.547 1.6 8.306 8.306 0 0 1-5.738-2.007l1.912-3.042a7.758 7.758 0 0 0 1.537 1.035 4.216 4.216 0 0 0 1.881.439 2.528 2.528 0 0 0 1.411-.313 1.194 1.194 0 0 0 .471-.91.923.923 0 0 0-.5-.815 6 6 0 0 0-1.38-.5l-1.128-.345a5.587 5.587 0 0 1-2.258-1.285 3.449 3.449 0 0 1-1-2.54 4.331 4.331 0 0 1 1.349-3.23 6.166 6.166 0 0 1 4.233-1.411 8.82 8.82 0 0 1 4.641 1.192Z"/><path data-name="Path 3151" d="M349.153 99.802v10.348h-4.515V99.802h-1.631v-3.637h1.631v-2.76a6.618 6.618 0 0 1 1.568-4.861 5.154 5.154 0 0 1 3.92-1.6 7.093 7.093 0 0 1 2.57.47v3.957a3.468 3.468 0 0 0-1.724-.534 1.626 1.626 0 0 0-1.317.565 4.214 4.214 0 0 0-.5 2.415v2.352h3.575v3.637Z"/><path data-name="Path 3152" d="M368.125 108.362a9.408 9.408 0 0 1-12.229 0 7.5 7.5 0 0 1 0-10.41 9.408 9.408 0 0 1 12.229 0 7.5 7.5 0 0 1 0 10.41Zm-8.654-7.839a3.869 3.869 0 0 0 0 5.268 3.477 3.477 0 0 0 2.571 1 3.425 3.425 0 0 0 2.508-1 3.869 3.869 0 0 0 0-5.268 3.717 3.717 0 0 0-5.079 0Z"/><path data-name="Path 3153" d="M373.051 96.165h4.515v2.194a5.021 5.021 0 0 1 1.756-1.944 4.327 4.327 0 0 1 2.414-.595 4.523 4.523 0 0 1 1.474.219l-.251 4.233a4.266 4.266 0 0 0-2.038-.5 2.95 2.95 0 0 0-2.258.941 5.314 5.314 0 0 0-1.1 3.763v5.676h-4.515Z"/><path data-name="Path 3154" d="M385.093 96.165h4.515v1.63a4.414 4.414 0 0 1 3.92-1.975 5.208 5.208 0 0 1 2.634.627 4.134 4.134 0 0 1 1.693 1.943 5.371 5.371 0 0 1 4.766-2.57 4.846 4.846 0 0 1 5.363 5.487v8.843h-4.516v-7.087a4.615 4.615 0 0 0-.6-2.728 2.073 2.073 0 0 0-1.63-.753 2.169 2.169 0 0 0-1.756.847 4.491 4.491 0 0 0-.69 2.759v6.962h-4.515v-7.279a3.769 3.769 0 0 0-.721-2.728 2.028 2.028 0 0 0-1.506-.565 2.2 2.2 0 0 0-1.567.565 4.241 4.241 0 0 0-.879 2.853v7.15h-4.515Z"/><path data-name="Path 3155" d="M424.199 97.199h8.341v-7.965h4.829v20.916h-4.829v-8.874h-8.341v8.874h-4.829V89.234h4.829Z"/><path data-name="Path 3156" d="M445.932 96.165v7.713a2.944 2.944 0 0 0 .784 2.258 2.66 2.66 0 0 0 1.881.659 2.8 2.8 0 0 0 1.913-.659 3.046 3.046 0 0 0 .752-2.258v-7.713h4.516v8.152a5.611 5.611 0 0 1-1.568 4.484c-1.6 1.568-3.951 1.819-5.613 1.819-1.725 0-4.045-.251-5.644-1.819a5.354 5.354 0 0 1-1.537-4.2v-8.434Z"/><path data-name="Path 3157" d="M463.933 87.29v10.442a5.218 5.218 0 0 1 4.358-2.038 7.047 7.047 0 0 1 4.861 1.881 7.477 7.477 0 0 1 2.2 5.519 7.839 7.839 0 0 1-2.2 5.613 6.281 6.281 0 0 1-4.8 1.913 4.973 4.973 0 0 1-4.421-2.163v1.693h-4.516V87.29Zm.721 13.327a3.6 3.6 0 0 0-1 2.571 3.4 3.4 0 0 0 1.035 2.509 3.85 3.85 0 0 0 2.57 1.035 3.464 3.464 0 0 0 2.352-.972 3.543 3.543 0 0 0 1.1-2.572 3.6 3.6 0 0 0-1.1-2.665 3.279 3.279 0 0 0-2.414-.941 3.317 3.317 0 0 0-2.543 1.035Z"/></g></g><g data-name="Group 1996"><path data-name="Path 3158" d="M96.134 28.041c-1.106 1.438-22 30.125-22.123 30.851s8.59 0 9.2.847-.847 80.818.484 81.544 33.513 1.331 34.723-.726-.726-80.576.846-81.786 14.156-1.089 15.607 0-.967 81.06.484 82.391 30.972 1.452 33.15-.363 0-46.821 1.21-47.547 16.817-.6 17.542.484-.6 45.49.726 46.942 32.182 1.694 34-.121 1.21-110.46-.726-112.274-29.036-.484-31.214 0-1.331 35.448-1.936 37.505-16.091 1.694-18.268.968 1.935-37.505-.121-38.715-71.835-2.27-73.584 0Z" fill="#1770c9"/><path data-name="Path 3159" d="M36.604 105.923c.127 2.28-23.107 30.086-23.768 29.417s15.987-26.607 14.871-27.252-12.4 14.231-14.115 13.573 4.787-18.963 3.886-19.405S2.057 127.756.432 127.33s8.908-26.8 14.878-33.04 21.164 9.35 21.294 11.633" fill="#ef7e16"/><path data-name="Path 3160" d="M96.675.45s-64.4 96.428-65.544 96.212-12.118-9.317-13.1-10.13 7.321-9.084 5.414-11.254-10.492-14.326-10.254-15.743 31.664-11.562 33.466-13.064S96.673.45 96.673.45" fill="#5586be"/><path data-name="Path 3161" d="M96.675.45C95.561-.706 50.393 46.875 47.422 48.428s-29.938 10.893-32.62 13.527 9.472 15.783 9.045 17.407-4.537 5.346-4.2 6.542 11.1 9.486 13.139 8.949S97.791 1.606 96.675.45Z" fill="none" stroke="#1d5ea9" stroke-linecap="round" stroke-linejoin="round"/><path data-name="Path 3162" d="M16.643 95.328C13.796 96.15-.37 124.591.454 125.338s19.412-24.279 20.139-23.766-6.979 17.431-6.229 18.329 14.732-12.5 15.276-11.792-17.2 27.915-15.871 27.926 22.91-24.968 22.81-27.4S19.49 94.504 16.643 95.328Z" fill="none" stroke="#1d5ea9" stroke-linecap="round" stroke-linejoin="round"/><path data-name="Path 3163" d="M94.382 23.785c-1.034.417-21.732 31.241-21.52 31.75s7.734.229 8.207.508-.967 81.059 0 81.779 34.1.45 34.675 0-.329-81.281 0-81.779 15.88-.43 16.292 0-.533 81.3 0 81.779 34.33.368 34.671 0-.341-40.477 0-40.891 17.372-.191 17.628 0-.377 40.494 0 40.891 34.289.329 34.674 0 .381-113.533 0-114.037-34.406-.3-34.674 0 .348 39.726 0 40.239-17.243.535-17.628 0 .546-39.856 0-40.239-71.473-.343-72.325 0Z" fill="none" stroke="#1d5ea9" stroke-linecap="round" stroke-linejoin="round"/></g></svg>