<?xml version="1.0" encoding="UTF-8" standalone="no"?>
<!-- Created with Inkscape (http://www.inkscape.org/) -->

<svg
   xmlns:dc="http://purl.org/dc/elements/1.1/"
   xmlns:cc="http://creativecommons.org/ns#"
   xmlns:rdf="http://www.w3.org/1999/02/22-rdf-syntax-ns#"
   xmlns:svg="http://www.w3.org/2000/svg"
   xmlns="http://www.w3.org/2000/svg"
   xmlns:sodipodi="http://sodipodi.sourceforge.net/DTD/sodipodi-0.dtd"
   xmlns:inkscape="http://www.inkscape.org/namespaces/inkscape"
   width="709.10223"
   height="165.40451"
   viewBox="0 0 664.78335 155.06672"
   id="svg4380"
   version="1.1"
   inkscape:version="0.92.0 r15299"
   sodipodi:docname="scramjet-logo-light.svg">
  <defs
     id="defs4382" />
  <sodipodi:namedview
     id="base"
     pagecolor="#ffffff"
     bordercolor="#666666"
     borderopacity="1.0"
     inkscape:pageopacity="0.0"
     inkscape:pageshadow="2"
     inkscape:zoom="0.98994949"
     inkscape:cx="313.21439"
     inkscape:cy="2.915643"
     inkscape:document-units="px"
     inkscape:current-layer="layer1"
     showgrid="false"
     inkscape:window-width="1920"
     inkscape:window-height="1017"
     inkscape:window-x="-8"
     inkscape:window-y="-8"
     inkscape:window-maximized="1"
     fit-margin-top="0"
     fit-margin-left="0"
     fit-margin-right="0"
     fit-margin-bottom="0"
     units="px" />
  <metadata
     id="metadata4385">
    <rdf:RDF>
      <cc:Work
         rdf:about="">
        <dc:format>image/svg+xml</dc:format>
        <dc:type
           rdf:resource="http://purl.org/dc/dcmitype/StillImage" />
        <dc:title></dc:title>
      </cc:Work>
    </rdf:RDF>
  </metadata>
  <g
     inkscape:label="Layer 1"
     inkscape:groupmode="layer"
     id="layer1"
     transform="translate(0.45426765,-409.23721)">
    <g
       id="g5613"
       transform="matrix(0.14814895,-0.14814895,0.14814895,0.14814895,-32.361374,606.74357)"
       style="stroke:none"
       inkscape:export-xdpi="297.13"
       inkscape:export-ydpi="297.13">
      <g
         id="g5585"
         transform="matrix(1.5817812,0,0,1.288615,-88.781031,-624.36628)"
         style="stroke:none">
        <g
           id="g5587"
           style="stroke:none">
          <path
             style="opacity:1;fill:#ff890a;fill-opacity:0.50196078;stroke:none;stroke-width:1.51499999;stroke-linecap:round;stroke-linejoin:round;stroke-miterlimit:4;stroke-dasharray:none;stroke-dashoffset:0;stroke-opacity:1"
             d="m 246.99997,417.36221 c 138,-6 185.8504,-8 212.23217,-14 l 10.71428,14 -10.71428,14 c -26.38177,-6 -74.23217,-8 -212.23217,-14 z"
             id="path5589"
             inkscape:connector-curvature="0"
             sodipodi:nodetypes="ccccc" />
          <path
             sodipodi:nodetypes="ccccc"
             inkscape:connector-curvature="0"
             id="path5591"
             d="m 328.99997,417.36221 c 56,-2 103.8504,-6 130.23217,-12 l 10.71428,12 -10.71428,12 c -26.38177,-6 -74.23217,-10 -130.23217,-12 z"
             style="opacity:1;fill:#ff890a;fill-opacity:0.50196078;stroke:none;stroke-width:1.51499999;stroke-linecap:round;stroke-linejoin:round;stroke-miterlimit:4;stroke-dasharray:none;stroke-dashoffset:0;stroke-opacity:1" />
          <path
             style="opacity:1;fill:#ff890a;fill-opacity:0.50196078;stroke:none;stroke-width:1.51499999;stroke-linecap:round;stroke-linejoin:round;stroke-miterlimit:4;stroke-dasharray:none;stroke-dashoffset:0;stroke-opacity:1"
             d="m 384.99997,417.36221 c 47.8504,-2 50.06212,-2.01096 74.23217,-8 l 10.71428,8 -10.71428,8 c -24.27008,-5.17868 -26.38177,-6 -74.23217,-8 z"
             id="path5593"
             inkscape:connector-curvature="0"
             sodipodi:nodetypes="ccccc" />
        </g>
      </g>
      <g
         transform="matrix(1.5817812,0,0,1.288615,-88.781031,-522.36628)"
         id="g5551"
         style="stroke:none">
        <g
           id="g5546"
           style="stroke:none">
          <path
             sodipodi:nodetypes="ccccc"
             inkscape:connector-curvature="0"
             id="path5528"
             d="m 246.99997,417.36221 c 138,-6 185.8504,-8 212.23217,-14 l 10.71428,14 -10.71428,14 c -26.38177,-6 -74.23217,-8 -212.23217,-14 z"
             style="opacity:1;fill:#ff890a;fill-opacity:0.50196078;stroke:none;stroke-width:1.51499999;stroke-linecap:round;stroke-linejoin:round;stroke-miterlimit:4;stroke-dasharray:none;stroke-dashoffset:0;stroke-opacity:1" />
          <path
             style="opacity:1;fill:#ff890a;fill-opacity:0.50196078;stroke:none;stroke-width:1.51499999;stroke-linecap:round;stroke-linejoin:round;stroke-miterlimit:4;stroke-dasharray:none;stroke-dashoffset:0;stroke-opacity:1"
             d="m 328.99997,417.36221 c 56,-2 103.8504,-6 130.23217,-12 l 10.71428,12 -10.71428,12 c -26.38177,-6 -74.23217,-10 -130.23217,-12 z"
             id="path5524"
             inkscape:connector-curvature="0"
             sodipodi:nodetypes="ccccc" />
          <path
             sodipodi:nodetypes="ccccc"
             inkscape:connector-curvature="0"
             id="rect5519"
             d="m 384.99997,417.36221 c 47.8504,-2 50.06212,-2.01096 74.23217,-8 l 10.71428,8 -10.71428,8 c -24.27008,-5.17868 -26.38177,-6 -74.23217,-8 z"
             style="opacity:1;fill:#ff890a;fill-opacity:0.50196078;stroke:none;stroke-width:1.51499999;stroke-linecap:round;stroke-linejoin:round;stroke-miterlimit:4;stroke-dasharray:none;stroke-dashoffset:0;stroke-opacity:1" />
        </g>
      </g>
      <g
         style="fill:#8c92b1;fill-opacity:1;stroke:none"
         transform="translate(511.42857,-452.85714)"
         id="g5482">
        <path
           style="opacity:1;fill:#3d4363;fill-opacity:1;stroke:none;stroke-width:1.51499999;stroke-linecap:round;stroke-linejoin:round;stroke-miterlimit:4;stroke-dasharray:none;stroke-dashoffset:0;stroke-opacity:1"
           d="M 239.94531,243.79102 196.375,246.50586 122.14283,387.3622 v 60.87673 l 74.23217,139.97982 43.57031,2.71484 C 285.22358,559.38095 371.9651,494.2523 402.80273,488.07617 562.37797,471.35661 698.36137,453.26839 786.23633,417.36133 698.36137,381.45427 562.37797,363.368 402.80273,346.64844 371.9651,340.47231 285.22358,275.34366 239.94531,243.79102 Z"
           id="rect5429"
           inkscape:connector-curvature="0"
           sodipodi:nodetypes="cccccccccc" />
        <path
           style="opacity:1;fill:#ff890a;fill-opacity:1;stroke:none;stroke-width:1.51499999;stroke-linecap:round;stroke-linejoin:round;stroke-miterlimit:4;stroke-dasharray:none;stroke-dashoffset:0;stroke-opacity:1"
           d="m 328.80273,366.05469 c -80.04835,-0.12507 -164.63006,5.37156 -206.66015,21.30664 -56.071152,22.00088 -121.93954069,22.00088 -138.023439,29.99805 -0.148834,1.6e-4 -0.372624,0.002 -0.513672,0.002 0.05712,0 0.142736,0.006 0.201172,0.006 -0.05842,2.2e-4 -0.144065,0.004 -0.201172,0.004 0.141048,0 0.364838,0.002 0.513672,0.002 16.13658344,7.98883 81.952287,7.98883 138.023439,29.99804 122.00834,39.48086 247.51558,33.44058 375.62107,12.02188 93.34754,-8.19414 166.66348,-14.60026 180.71096,-38.72109 0.0731,-0.11867 0.13372,-0.23996 0.20312,-0.35938 0.0906,-0.16362 0.19016,-0.325 0.27539,-0.49023 0.42823,-0.80099 0.78405,-1.61624 0.78405,-2.45606 0,-0.83982 -0.35582,-1.65507 -0.78405,-2.45605 -0.0852,-0.16524 -0.18474,-0.32662 -0.27539,-0.49024 -0.0694,-0.11942 -0.13005,-0.24071 -0.20312,-0.35937 -14.04748,-24.12083 -87.36342,-29.65891 -180.71096,-37.85305 -60.41756,-5.46646 -118.42239,-9.96123 -168.96092,-10.15281 z"
           id="rect5472"
           inkscape:connector-curvature="0"
           sodipodi:nodetypes="ccccccccccccscccccc" />
        <path
           style="opacity:1;fill:#8c92b1;fill-opacity:1;stroke:none;stroke-width:1.51499999;stroke-linecap:round;stroke-linejoin:round;stroke-miterlimit:4;stroke-dasharray:none;stroke-dashoffset:0;stroke-opacity:1"
           d="m 121.42855,347.3622 37.15602,-4.83755 c 65.99834,1.1913 287.70265,10.93971 339.17908,33.68318 -130.05759,-5.67444 -260.75886,-4.0652 -375.62082,11.15437 z"
           id="rect5432"
           inkscape:connector-curvature="0"
           sodipodi:nodetypes="ccccc"
           inkscape:transform-center-x="2.1426967"
           inkscape:transform-center-y="-52.857138" />
        <path
           style="opacity:1;fill:#3d4363;fill-opacity:1;stroke:none;stroke-width:1.51499999;stroke-linecap:round;stroke-linejoin:round;stroke-miterlimit:4;stroke-dasharray:none;stroke-dashoffset:0;stroke-opacity:1"
           d="m 174,411.36221 h 36.53572 l 103.74998,6 -103.74998,6 H 174 l -83,-6 z"
           id="rect5435"
           inkscape:connector-curvature="0"
           sodipodi:nodetypes="ccccccc" />
        <path
           inkscape:transform-center-y="52.857142"
           inkscape:transform-center-x="2.1426967"
           sodipodi:nodetypes="ccccc"
           inkscape:connector-curvature="0"
           id="path5470"
           d="m 121.42855,488.23893 37.15602,4.83755 c 65.99834,-1.1913 287.70265,-10.93971 339.17908,-33.68318 -130.05759,5.67444 -260.75886,4.0652 -375.62082,-11.15437 z"
           style="opacity:1;fill:#8c92b1;fill-opacity:1;stroke:none;stroke-width:1.51499999;stroke-linecap:round;stroke-linejoin:round;stroke-miterlimit:4;stroke-dasharray:none;stroke-dashoffset:0;stroke-opacity:1" />
      </g>
    </g>
    <g
       id="text5665"
       style="font-style:normal;font-variant:normal;font-weight:bold;font-stretch:normal;font-size:127.37111664px;line-height:125%;font-family:Play;-inkscape-font-specification:'Play, Bold';text-align:start;letter-spacing:0px;word-spacing:0px;writing-mode:lr-tb;text-anchor:start;opacity:1;fill:#3d4363;fill-opacity:1;stroke:none;stroke-width:1px;stroke-linecap:butt;stroke-linejoin:miter;stroke-opacity:1"
       transform="matrix(1,0,-0.26794919,1,0.84428972,-85.591629)"
       aria-label="scramjet">
      <path
         inkscape:connector-curvature="0"
         id="path4510"
         d="m 353.16385,582.98875 v 7.76964 q 0,4.58536 -1.78319,7.89701 -1.65583,3.31164 -4.33062,5.22221 -2.54742,1.7832 -6.75067,2.80217 -4.20325,1.01897 -8.15175,1.27371 -3.82113,0.38211 -9.04335,0.38211 -10.06232,0 -24.32788,-1.91057 v -12.35499 q 17.70458,2.67479 24.58262,2.67479 5.47696,0 8.4065,-1.01897 3.0569,-1.14634 3.0569,-4.33062 v -3.82113 q 0,-2.92954 -1.65582,-4.33062 -1.65583,-1.52845 -7.13278,-1.52845 h -8.02439 q -9.6802,0 -15.15716,-3.82114 -5.34958,-3.9485 -5.34958,-11.4634 v -7.51489 q 0,-8.4065 8.02438,-11.59077 8.02438,-3.18428 22.67205,-3.18428 6.11382,0 21.90784,1.14634 v 11.84551 q -19.8699,-1.52845 -22.41732,-1.52845 -7.76964,0 -9.80758,1.14634 -2.03793,1.01897 -2.03793,4.07587 v 3.31165 q 0,1.52846 1.52845,2.80217 1.65582,1.27371 4.96747,1.27371 h 8.15175 q 22.67206,0 22.67206,14.77505 z" />
      <path
         inkscape:connector-curvature="0"
         id="path4512"
         d="m 417.91814,606.17029 q -11.20866,2.16531 -20.88887,2.16531 -4.71273,0 -7.51489,-0.12737 -2.80217,-0.12737 -7.13278,-0.76423 -4.20325,-0.50948 -6.87804,-1.91056 -2.54743,-1.40109 -5.22222,-3.5664 -2.54742,-2.29268 -3.82113,-5.98644 -1.27371,-3.82113 -1.27371,-8.91598 v -20.50675 q 0,-4.58536 1.01896,-8.02438 1.14634,-3.56639 2.6748,-5.85907 1.65582,-2.42005 4.45799,-4.07587 2.92953,-1.65583 5.34958,-2.42005 2.42006,-0.8916 6.24119,-1.40109 3.9485,-0.50948 6.49593,-0.50948 2.67479,-0.12737 6.87804,-0.12737 7.00541,0 18.72355,2.29268 v 12.22763 q -13.2466,-3.05691 -20.12464,-3.05691 -12.86448,0 -12.86448,8.66123 v 22.67206 q 0,9.80758 14.13819,9.80758 6.6233,0 19.74253,-2.80217 z" />
      <path
         inkscape:connector-curvature="0"
         id="path4514"
         d="m 468.79295,559.55246 h -6.36855 q -7.64227,0 -11.59078,2.42005 -3.82113,2.29268 -3.82113,8.02438 v 37.065 h -18.59618 v -61.64762 h 17.70458 v 10.82654 q 0.12737,-4.58536 5.22222,-8.27912 5.22222,-3.82113 10.82654,-3.82113 h 6.6233 z" />
      <path
         inkscape:connector-curvature="0"
         id="path4516"
         d="M 534.45077,607.06189 H 516.2367 v -5.60433 q -2.03794,3.69376 -5.85907,5.34959 -3.82113,1.52845 -14.01082,1.52845 -12.48237,0 -16.55825,-3.82113 -4.07587,-3.82114 -4.07587,-15.92139 0,-10.95392 4.20324,-15.15717 4.20325,-4.33061 15.0298,-4.33061 h 20.88886 v -4.20325 q 0,-5.60433 -2.6748,-7.38752 -2.54742,-1.91057 -10.95391,-1.91057 -7.89701,0 -21.65309,1.52845 v -11.71814 q 10.5718,-1.27371 23.56366,-1.27371 17.06773,0 23.69102,4.20324 6.6233,4.07588 6.6233,16.30351 z m -18.59618,-15.79402 v -11.97288 h -12.73711 q -6.11382,0 -7.64227,1.40108 -1.52845,1.40108 -1.52845,7.51489 0,5.98645 1.52845,7.26016 1.65582,1.27371 8.15175,1.27371 3.18428,0 4.71273,0 1.52846,-0.12737 3.31165,-0.38211 1.7832,-0.25475 2.42005,-0.76423 0.76423,-0.63686 1.27371,-1.65583 0.50949,-1.01896 0.50949,-2.67479 z" />
      <path
         inkscape:connector-curvature="0"
         id="path4518"
         d="M 646.08558,607.06189 H 627.4894 v -42.66932 q 0,-5.60433 -1.40109,-7.13279 -1.27371,-1.65582 -7.26015,-1.65582 -7.64227,0 -9.42546,1.65582 -1.65583,1.52846 -1.65583,7.13279 v 42.66932 h -18.59618 v -42.66932 q 0,-5.60433 -1.40108,-7.13279 -1.27371,-1.65582 -7.26016,-1.65582 -7.64226,0 -9.42546,1.65582 -1.65582,1.52846 -1.65582,7.13279 v 42.66932 h -18.59619 v -61.64762 h 18.59619 v 7.5149 q 1.78319,-8.78861 18.21407,-8.78861 8.7886,0 13.11922,2.29268 4.45799,2.29268 5.98644,6.87804 1.52846,-4.71273 5.7317,-6.87804 4.33062,-2.29268 13.50134,-2.29268 12.10026,0 16.04876,4.33062 4.07588,4.20324 4.07588,13.37396 z" />
      <path
         inkscape:connector-curvature="0"
         id="path4520"
         d="m 681.10667,545.41427 v 70.94571 q 0,10.95392 -6.6233,14.77505 -6.49593,3.94851 -18.9783,3.94851 -1.65582,0 -5.98644,-0.25475 v -12.10025 q 0.76423,0.12737 2.29268,0.12737 6.87804,0 8.78861,-1.7832 1.91057,-1.78319 1.91057,-8.91598 v -66.74246 z m 0,-7.26015 h -18.59618 v -15.0298 h 18.59618 z" />
      <path
         inkscape:connector-curvature="0"
         id="path4522"
         d="m 754.27341,581.20555 h -39.99453 v 5.60433 q 0,5.22222 3.69376,7.64227 3.69376,2.29268 13.88345,2.29268 9.17072,0 20.63412,-2.67479 v 11.84551 q -11.71814,2.42005 -24.20051,2.42005 -32.73438,0 -32.73438,-19.99726 v -22.16258 q 0,-11.84551 7.64227,-16.94036 7.64227,-5.09484 22.79943,-5.09484 14.26557,0 21.27098,4.8401 7.00541,4.8401 7.00541,17.1951 z m -17.70459,-10.5718 v -8.91598 q 0,-2.92953 -2.42005,-4.45799 -2.29268,-1.65582 -8.40649,-1.65582 -6.75067,0 -9.17072,1.65582 -2.29268,1.52846 -2.29268,4.45799 v 8.91598 z" />
      <path
         inkscape:connector-curvature="0"
         id="path4524"
         d="m 809.6281,607.69875 q -5.34959,0.63685 -10.31706,0.63685 -4.33062,0 -7.64227,-0.38211 -3.18427,-0.25474 -6.75066,-1.40108 -3.43902,-1.27372 -5.73171,-3.18428 -2.1653,-2.03794 -3.69376,-5.60433 -1.40108,-3.69376 -1.40108,-8.66124 v -32.22489 h -12.48237 v -11.4634 h 12.48237 v -17.83196 h 18.59618 v 17.83196 h 16.94036 v 11.4634 h -16.94036 v 29.04061 q 0,6.36856 1.91057,8.66124 1.91057,2.16531 8.40649,2.16531 2.16531,0 6.6233,-0.63686 z" />
    </g>
  </g>
</svg>
