<?xml version="1.0" encoding="UTF-8"?>
<svg width="248.79" height="121.27" version="1.1" viewBox="0 0 248.79 121.27" xml:space="preserve" xmlns="http://www.w3.org/2000/svg" xmlns:cc="http://creativecommons.org/ns#" xmlns:dc="http://purl.org/dc/elements/1.1/" xmlns:rdf="http://www.w3.org/1999/02/22-rdf-syntax-ns#" xmlns:xlink="http://www.w3.org/1999/xlink"><metadata><rdf:RDF><cc:Work rdf:about=""><dc:format>image/svg+xml</dc:format><dc:type rdf:resource="http://purl.org/dc/dcmitype/StillImage"/><dc:title/></cc:Work></rdf:RDF></metadata><defs>
	
	<clipPath id="SVGID_2_">
		<use width="100%" height="100%" xlink:href="#SVGID_1_"/>
	</clipPath>
	
	
	
	
	
	
</defs>
<style type="text/css">
	.st0{clip-path:url(#SVGID_2_);fill:#165FAA;}
	.st1{fill:#165FAA;}
	.st2{fill:#182B47;}
	.st3{fill:#2A6EB5;}
	.st4{fill:#054065;}
	.st5{fill:#F07E19;}
	.st6{fill:#CC1517;}
	.st7{fill:#3A3938;}
	.st8{fill:#979696;}
	.st9{fill:#B9B8B8;}
	.st10{fill:#4D4D4C;}
	.st11{fill:#757474;}
	.st12{clip-path:url(#SVGID_4_);}
	.st13{clip-path:url(#SVGID_6_);fill:#FFFFFF;}
	.st14{fill:#FFFFFF;}
	.st15{clip-path:url(#SVGID_8_);}
	.st16{clip-path:url(#SVGID_10_);fill:#FFFFFF;}
</style>














<path class="st0" transform="translate(-17.19,-80.95)" d="m98.71 158.7 2.11-2.87c1.42 1.34 3.23 2.18 5.52 2.18 2.07 0 3.67-0.73 3.67-2.03 0-1.45-1.82-1.92-3.99-2.43-2.98-0.69-6.72-1.63-6.72-5.7 0-3.81 3.38-5.7 7.37-5.7 3.05 0 5.41 1.13 7.04 2.47l-2.14 2.87c-1.27-1.09-2.9-1.82-4.83-1.82-1.82 0-3.3 0.62-3.3 1.89 0 1.45 1.78 1.89 4.03 2.4 2.98 0.65 6.68 1.6 6.68 5.63 0 3.85-3.41 5.96-7.73 5.96-3.39-0.02-5.93-1.29-7.71-2.85" clip-path="url(#SVGID_2_)"/><path class="st0" transform="translate(-17.19,-80.95)" d="m116.47 151.84c0-5.52 4.25-9.7 9.91-9.7 3.7 0 6.83 1.82 8.5 4.61l-3.52 2.14c-0.98-1.71-2.8-2.83-4.97-2.83-3.27 0-5.74 2.51-5.74 5.77 0 3.27 2.47 5.77 5.74 5.77 2.18 0 3.99-1.13 4.97-2.83l3.52 2.14c-1.67 2.8-4.79 4.61-8.5 4.61-5.66 0.01-9.91-4.16-9.91-9.68" clip-path="url(#SVGID_2_)"/><path class="st0" transform="translate(-17.19,-80.95)" d="m148.68 142.29v4.18h-0.69c-3.63 0-5.77 2.22-5.77 5.63v9h-4.07v-18.52h4.07v2.72c1.38-1.89 3.34-3.01 5.77-3.01z" clip-path="url(#SVGID_2_)"/><path class="st0" transform="translate(-17.19,-80.95)" d="m165.63 151.84c0-3.27-2.43-5.77-5.7-5.77-3.3 0-5.74 2.51-5.74 5.77 0 3.27 2.43 5.77 5.74 5.77 3.27 0 5.7-2.5 5.7-5.77m4.07-9.26v18.52h-4.07v-2.65c-1.52 1.92-3.77 3.09-6.5 3.09-5.23 0-9.11-4.18-9.11-9.69 0-5.52 3.89-9.7 9.11-9.7 2.72 0 4.97 1.16 6.5 3.09v-2.65h4.07z" clip-path="url(#SVGID_2_)"/><path class="st0" transform="translate(-17.19,-80.95)" d="m203.72 149.08v12.02h-4.07v-10.82c0-2.54-1.6-4.21-4.1-4.21-2.61 0-4.39 1.71-4.39 4.29v10.75h-4.07v-10.82c0-2.54-1.6-4.21-4.1-4.21-2.61 0-4.39 1.71-4.39 4.29v10.75h-4.07v-18.52h4.07v2.18c1.38-1.71 3.34-2.61 5.74-2.61 2.72 0 4.83 1.23 5.95 3.27 1.45-2.11 3.7-3.27 6.5-3.27 4.21-0.03 6.93 2.73 6.93 6.91" clip-path="url(#SVGID_2_)"/><path class="st0" transform="translate(-17.19,-80.95)" d="m220.58 150.13h10.78c-0.62-2.61-2.76-4.32-5.41-4.32s-4.72 1.74-5.37 4.32m15.03 3.34h-15c0.65 2.65 2.94 4.39 5.96 4.39 2.43 0 4.5-1.16 5.55-2.54l2.76 2.36c-1.89 2.36-4.94 3.85-8.42 3.85-5.88 0-10.24-4.21-10.24-9.77 0-5.48 4.21-9.62 9.77-9.62s9.73 4.14 9.73 9.73c0 0.51-0.04 1.09-0.11 1.6" clip-path="url(#SVGID_2_)"/><rect class="st1" x="191.3" y="61.63" width="4.07" height="31.26"/><polygon class="st1" transform="translate(-17.19,-80.95)" points="237.06 142.58 237.06 146.28 240.19 146.28 240.19 161.1 244.25 161.1 244.25 146.28 247.46 146.28 247.46 142.58 244.25 142.58 244.25 135.75 240.19 135.75 240.19 142.58"/><rect class="st1" x="191.3" y="54.8" width="4.07" height="4.07"/><polygon class="st2" transform="translate(-17.19,-80.95)" points="77.36 142.99 95.03 101.6 95.03 99.76 77.42 141.05"/><polygon class="st1" transform="translate(-17.19,-80.95)" points="42.16 139.44 47.97 150.65 45.36 154.34 53.62 160.07 95.03 99.76 62.79 131"/><polygon class="st3" transform="translate(-17.19,-80.95)" points="64.39 161.93 76.93 163.34 77.42 141.05 95.03 99.76 53.62 160.07 61.87 165.69"/><polygon class="st2" transform="translate(-17.19,-80.95)" points="64.39 163.77 64.39 161.93 61.87 165.69 61.87 167.53"/><polygon class="st4" transform="translate(-17.19,-80.95)" points="64.39 163.77 76.93 165.18 76.93 163.34 64.39 161.93"/><polygon class="st4" transform="translate(-17.19,-80.95)" points="61.87 167.53 61.87 165.69 45.36 154.34 45.36 156.18"/><polygon class="st2" transform="translate(-17.19,-80.95)" points="47.42 151.43 47.97 150.65 42.16 139.44 42.16 141.28"/><polygon class="st5" transform="translate(-17.19,-80.95)" points="44.94 172.18 55.29 163.37 44.71 181.87 58.53 164.69 55.88 162.87 55.66 162.73 49.82 158.74 49.58 158.57 46.95 156.78 36 175.92 49.3 159.39"/><polygon class="st6" transform="translate(-17.19,-80.95)" points="48.22 162.57 49.3 159.39 36 175.92 36 177.75"/><polygon class="st6" transform="translate(-17.19,-80.95)" points="53.24 166.95 55.29 163.37 44.94 172.18 44.94 174.02"/><polygon class="st6" transform="translate(-17.19,-80.95)" points="58.53 166.53 58.53 164.69 44.71 181.87 44.71 183.7"/>
<g fill="#165faa" aria-label="cloud platform"><g transform="scale(1.0007 .99935)" stroke-width=".087962" aria-label="framework"><path d="m81.932 86.868v0.87093h2.6709v-0.87093zm2.578-2.6012 0.51095-0.76642q-0.08129-0.11612-0.23225-0.22064-0.13935-0.10451-0.33676-0.17419-0.19741-0.06967-0.45288-0.06967-0.48772 0-0.83609 0.20902-0.33676 0.19741-0.52256 0.60384t-0.1858 1.0451v7.3158h0.92899v-7.1997q0-0.38321 0.06967-0.61546t0.1858-0.32515q0.12774-0.10451 0.30192-0.10451 0.13935 0 0.29031 0.05806 0.16257 0.04645 0.2787 0.24386z"/><path d="m86.588 86.868h-0.92899v5.3417h0.92899zm1.6141 1.0219 0.51095-0.76642q-0.20902-0.22064-0.4645-0.29031-0.24386-0.08129-0.53417-0.08129-0.3716 0-0.73158 0.29031-0.35998 0.29031-0.59223 0.78964-0.22064 0.48772-0.22064 1.1264h0.41805q0-0.38321 0.06967-0.68513 0.08129-0.30192 0.2787-0.47611 0.19741-0.17419 0.54578-0.17419 0.23225 0 0.38321 0.06967 0.15096 0.05806 0.33676 0.19741z"/><path d="m90.06 90.561q0-0.29031 0.13935-0.49933t0.41805-0.32515q0.29031-0.11612 0.74319-0.11612 0.48772 0 0.91738 0.12774 0.42966 0.11612 0.83609 0.39482v-0.54578q-0.08129-0.10451-0.31354-0.26708-0.23225-0.17419-0.62707-0.30192-0.38321-0.13935-0.96383-0.13935-0.98705 0-1.5444 0.47611-0.54578 0.4645-0.54578 1.2425 0 0.54578 0.25547 0.92899t0.67352 0.59223q0.42966 0.19741 0.91738 0.19741 0.44127 0 0.88254-0.16257 0.45288-0.16257 0.75481-0.49933 0.31354-0.33676 0.31354-0.8477l-0.1858-0.69674q0 0.41805-0.20902 0.74319-0.19741 0.31353-0.54578 0.48772-0.33676 0.17419-0.76642 0.17419-0.33676 0-0.60384-0.10451-0.25547-0.11612-0.40643-0.33676-0.13935-0.22064-0.13935-0.52256zm-0.13935-2.4618q0.12774-0.0929 0.34837-0.22064 0.22064-0.12774 0.53417-0.22064 0.32515-0.0929 0.71997-0.0929 0.24386 0 0.4645 0.04645 0.22064 0.04645 0.38321 0.15096 0.17419 0.10451 0.26708 0.29031 0.0929 0.17419 0.0929 0.45288v3.7044h0.92899v-3.8321q0-0.52256-0.26708-0.88254-0.25547-0.35998-0.73158-0.54578-0.4645-0.19741-1.0916-0.19741-0.74319 0-1.2774 0.22064-0.52256 0.22064-0.82448 0.44127z"/><path d="m102.54 88.842q0-0.66191-0.20902-1.1264-0.19741-0.47611-0.58062-0.71997-0.38321-0.24386-0.929-0.24386-0.53417 0-0.95221 0.25547-0.41805 0.24386-0.69674 0.74319-0.1858-0.47611-0.59223-0.73158-0.39482-0.26708-0.95222-0.26708-0.49933 0-0.87093 0.22064-0.35998 0.22064-0.60384 0.67352v-0.77803h-0.92899v5.3417h0.92899v-3.2515q0-0.41805 0.15096-0.71997 0.15096-0.30192 0.42966-0.45288 0.2787-0.16257 0.66191-0.16257 0.52256 0 0.76642 0.32515 0.25547 0.32515 0.25547 1.0103v3.2515h0.92899v-3.2515q0-0.41805 0.15096-0.71997 0.15096-0.30192 0.42966-0.45288 0.2787-0.16257 0.66191-0.16257 0.52255 0 0.76641 0.32515 0.25548 0.32515 0.25548 1.0103v3.2515h0.92899z"/><path d="m106.35 92.326q0.85932 0 1.4864-0.33676 0.63868-0.34837 1.0567-1.0219l-0.75481-0.47611q-0.29031 0.48772-0.70835 0.73158-0.41805 0.23225-0.96383 0.23225-0.54579 0-0.92899-0.23225-0.38321-0.23225-0.58062-0.67352-0.19742-0.44127-0.19742-1.0683 0.0116-0.61546 0.20903-1.0335 0.20902-0.42966 0.58062-0.65029 0.38321-0.23225 0.91738-0.23225 0.45288 0 0.78964 0.19741t0.52256 0.54578q0.19741 0.34837 0.19741 0.82448 0 0.08129-0.0348 0.20902-0.0348 0.11612-0.0697 0.17419l0.37159-0.53417h-3.8321v0.78964h4.5637q0-0.02322 0-0.10451 0.0116-0.0929 0.0116-0.17419 0-0.8477-0.30192-1.4632-0.30193-0.61546-0.87093-0.9406-0.5574-0.33676-1.347-0.33676-0.78965 0-1.3935 0.34837-0.59223 0.34837-0.92899 0.97544-0.32515 0.62707-0.32515 1.4632 0 0.82448 0.31354 1.4516 0.32514 0.62707 0.89415 0.98705 0.58062 0.34837 1.3238 0.34837z"/><path d="m109.28 86.868 2.3225 5.7481 1.5212-3.8902 1.6141 3.8902 2.3225-5.7481h-1.0451l-1.347 3.4953-1.5561-3.9018-1.4516 3.8785-1.3354-3.4721z"/><path d="m117.35 89.539q0 0.80126 0.35999 1.4399 0.37159 0.62707 0.99866 0.98705 0.62707 0.35998 1.4051 0.35998 0.78965 0 1.4051-0.35998 0.62707-0.35998 0.98706-0.98705 0.37159-0.63868 0.37159-1.4399 0-0.81287-0.37159-1.4399-0.35999-0.62707-0.98706-0.98705-0.61545-0.35998-1.4051-0.35998-0.77803 0-1.4051 0.35998-0.62707 0.35998-0.99866 0.98705-0.35999 0.62707-0.35999 1.4399zm0.94061 0q0-0.5574 0.23224-0.98705 0.24386-0.44127 0.6503-0.68513 0.41804-0.24386 0.9406-0.24386t0.92899 0.24386q0.41805 0.24386 0.6503 0.68513 0.24386 0.42966 0.24386 0.98705t-0.24386 0.98705q-0.23225 0.42966-0.6503 0.68513-0.40643 0.24386-0.92899 0.24386t-0.9406-0.24386q-0.40644-0.25547-0.6503-0.68513-0.23224-0.42966-0.23224-0.98705z"/><path d="m125.08 86.868h-0.92899v5.3417h0.92899zm1.6141 1.0219 0.51094-0.76642q-0.20902-0.22064-0.4645-0.29031-0.24386-0.08129-0.53417-0.08129-0.37159 0-0.73158 0.29031-0.35998 0.29031-0.59223 0.78964-0.22063 0.48772-0.22063 1.1264h0.41804q0-0.38321 0.0697-0.68513 0.0813-0.30192 0.27869-0.47611 0.19741-0.17419 0.54579-0.17419 0.23224 0 0.38321 0.06967 0.15096 0.05806 0.33676 0.19741z"/><path d="m128.08 83.152v9.0577h0.929v-9.0577zm2.9031 3.716-2.3225 2.2064 2.5547 3.1353h1.1612l-2.5547-3.1353 2.3225-2.2064z"/></g></g></svg>
